<?xml version="1.0" encoding="UTF-8" standalone="no"?>
<!-- Created with Inkscape (http://www.inkscape.org/) -->

<svg
   xmlns:dc="http://purl.org/dc/elements/1.1/"
   xmlns:cc="http://creativecommons.org/ns#"
   xmlns:rdf="http://www.w3.org/1999/02/22-rdf-syntax-ns#"
   xmlns:svg="http://www.w3.org/2000/svg"
   xmlns="http://www.w3.org/2000/svg"
   xmlns:sodipodi="http://sodipodi.sourceforge.net/DTD/sodipodi-0.dtd"
   xmlns:inkscape="http://www.inkscape.org/namespaces/inkscape"
   width="92.308395mm"
   height="67.600914mm"
   viewBox="0 0 92.308395 67.600914"
   version="1.1"
   id="svg5924"
   inkscape:version="0.92+devel unknown"
   sodipodi:docname="smaller_logo.svg">
  <defs
     id="defs5918" />
  <sodipodi:namedview
     id="base"
     pagecolor="#ffffff"
     bordercolor="#666666"
     borderopacity="1.0"
     inkscape:pageopacity="0.0"
     inkscape:pageshadow="2"
     inkscape:zoom="0.35"
     inkscape:cx="-344.13036"
     inkscape:cy="-49.393114"
     inkscape:document-units="mm"
     inkscape:current-layer="layer1"
     inkscape:document-rotation="0"
     showgrid="false"
     inkscape:window-width="1600"
     inkscape:window-height="836"
     inkscape:window-x="0"
     inkscape:window-y="0"
     inkscape:window-maximized="1" />
  <metadata
     id="metadata5921">
    <rdf:RDF>
      <cc:Work
         rdf:about="">
        <dc:format>image/svg+xml</dc:format>
        <dc:type
           rdf:resource="http://purl.org/dc/dcmitype/StillImage" />
        <dc:title></dc:title>
      </cc:Work>
    </rdf:RDF>
  </metadata>
  <g
     inkscape:label="Livello 1"
     inkscape:groupmode="layer"
     id="layer1"
     transform="translate(-21.881516,-68.163826)">
    <g
       transform="matrix(0.35277777,0,0,-0.35277777,15.264574,285.02119)"
       id="g5883">
      <g
         transform="translate(244.8984,523.1826)"
         id="g70">
        <path
           inkscape:connector-curvature="0"
           id="path72"
           style="fill:#c7c7c6;fill-opacity:1;fill-rule:nonzero;stroke:none"
           d="m 0,0 c -20.252,0 -44.418,-20.57 -81.703,-20.598 -37.285,-0.027 -45.988,24.121 -81.502,22.01 -35.512,-2.113 -35.508,-37.646 -35.508,-37.646 v -0.952 c 0.461,-16.976 4.479,-42.972 41.324,-53.574 24.645,-7.092 54.524,-10.39 79.231,-3.234 23.23,-4.824 49.949,-1.531 72.344,4.914 36.845,10.6 40.863,36.596 41.324,53.574 C 35.971,-18.533 20.258,0 0,0" />
      </g>
      <g
         transform="translate(155.4102,566.3115)"
         id="g74">
        <path
           inkscape:connector-curvature="0"
           id="path76"
           style="fill:#f7a600;fill-opacity:1;fill-rule:nonzero;stroke:none"
           d="m 0,0 c 0,0 -13.834,5.039 -6.541,14.867 7.291,9.826 8.242,11.412 7.607,15.852 -0.632,4.437 -19.507,-4.756 -4.365,17.119 0,0 -18.459,-12.047 -10.851,-22.508 0,0 0.109,-0.211 0.31,-0.512 -2.969,-2.66 -5.603,-6.761 -5.717,-12.172 0,0 -0.086,-1.669 0.309,-3.625 -1.225,0.12 -2.815,-0.822 -4.732,-3.982 -6.34,-10.463 -1.014,-17.904 -1.014,-17.904 l 0.101,-0.041 c -1.935,-3.528 -3.132,-7.518 -3.132,-11.824 0,-13.657 11.07,-24.729 24.726,-24.729 5.492,0 10.518,1.85 14.623,4.879 -0.568,-1.057 -1.219,-2.143 -2.053,-3.287 -9.904,-13.629 -32.21,-9.186 -32.21,-9.186 l 58.984,-33.355 c 0,0 29.601,73.637 -36.045,90.408" />
      </g>
      <g
         transform="translate(224.9941,499.1924)"
         id="g78">
        <path
           inkscape:connector-curvature="0"
           id="path80"
           style="fill:#f7a600;fill-opacity:1;fill-rule:nonzero;stroke:none"
           d="m 0,0 c -3.838,-3.141 -59.66,-46.959 -111.963,-7.125 -21.767,16.58 -7.609,2.941 -7.609,2.941 5.468,-5.193 7.377,-8.507 21.978,-24.437 9.512,-10.377 17.307,-19.582 20.289,-22.008 9.25,-7.519 19.518,-15.248 35.086,-9.512 28.108,10.358 40.6,29.036 46.942,33.952 4.191,3.25 15.439,7.222 25.506,3.128 3.595,-1.46 5.513,6.637 4.914,9.194 C 32.939,-4.553 29.43,1.01 19.332,3.297 15.273,4.215 6.607,5.408 0,0" />
      </g>
      <g
         transform="translate(255.2227,480.2256)"
         id="g82">
        <path
           inkscape:connector-curvature="0"
           id="path84"
           style="fill:#003c70;fill-opacity:1;fill-rule:nonzero;stroke:none"
           d="m 0,0 c -3.27,1.652 -6.438,2.607 -9.781,3.289 -3.336,0.719 -6.678,1.008 -10.35,1.305 3.315,1.672 7.227,1.888 10.865,1.177 C -5.686,4.986 -1.988,3.203 0,0" />
      </g>
      <g
         transform="translate(87.4629,432.3721)"
         id="g86">
        <path
           inkscape:connector-curvature="0"
           id="path88"
           style="fill:#003c70;fill-opacity:1;fill-rule:nonzero;stroke:none"
           d="m 0,0 c 13,-2.824 26.131,-4.697 39.268,-5.201 13.111,-0.348 26.289,0.603 38.718,4.17 12.448,3.816 24.258,9.465 35.119,16.715 10.836,7.259 19.829,16.379 29.149,24.947 l 0.902,0.646 0.065,0.049 c 3.765,2.83 8.291,4.631 12.894,5.229 2.303,0.306 4.813,0.018 6.985,-0.451 3.5,-1.187 3.66,-2.195 5.697,-2.505 -2.111,0.033 -3.782,1.13 -6.012,1.555 -2.154,0.357 -4.264,0.377 -6.398,-0.127 -4.295,-0.963 -8.137,-3.154 -11.461,-5.875 l 0.168,0.159 C 136.404,29.197 126.893,19.541 115.777,11.793 104.736,4.039 92.34,-2.025 79.324,-5.773 66.131,-9.408 52.396,-9.92 39.051,-8.666 25.67,-7.471 12.535,-4.48 0,0" />
      </g>
      <g
         transform="translate(231.6016,489.6572)"
         id="g90">
        <path
           inkscape:connector-curvature="0"
           id="path92"
           style="fill:#003c70;fill-opacity:1;fill-rule:nonzero;stroke:none"
           d="M 0,0 C 4.193,1.949 9.039,2.354 13.643,1.572 18.199,0.732 22.83,-1.51 25.445,-5.389 17.6,-0.697 9.105,0.064 0,0" />
      </g>
      <g
         transform="translate(230.4941,494.7295)"
         id="g94">
        <path
           inkscape:connector-curvature="0"
           id="path96"
           style="fill:#003c70;fill-opacity:1;fill-rule:nonzero;stroke:none"
           d="m 0,0 c 1.898,1.551 4.42,2.002 6.771,2.301 2.395,0.287 4.805,0.148 7.182,-0.211 2.365,-0.424 4.725,-1.043 6.887,-2.182 2.14,-1.099 4.25,-2.633 5.316,-4.822 -1.863,1.476 -3.927,2.338 -6.058,3.016 C 17.959,-1.26 15.77,-0.756 13.543,-0.41 11.33,-0.016 9.08,0.178 6.822,0.357 4.564,0.457 2.289,0.566 0,0" />
      </g>
      <g
         transform="translate(250.2305,498.2178)"
         id="g98">
        <path
           inkscape:connector-curvature="0"
           id="path100"
           style="fill:#003c70;fill-opacity:1;fill-rule:nonzero;stroke:none"
           d="m 0,0 c -4.43,0.537 -8.596,1.238 -12.791,1.285 -4.18,0.072 -8.313,-0.299 -12.445,-1.894 1.494,1.716 3.613,2.759 5.763,3.476 2.17,0.733 4.469,0.977 6.737,0.951 C -8.207,3.672 -3.764,2.4 0,0" />
      </g>
      <g
         transform="translate(246.8828,465.1025)"
         id="g102">
        <path
           inkscape:connector-curvature="0"
           id="path104"
           style="fill:#27348b;fill-opacity:1;fill-rule:nonzero;stroke:none"
           d="M 0,0 C -0.18,0.717 -0.398,1.236 -0.654,1.559 -0.912,1.882 -1.236,2.063 -1.613,2.104 -2.324,2.183 -2.861,1.93 -3.227,1.345 -3.596,0.76 -3.855,-0.258 -4.014,-1.709 l -0.052,-0.49 -1.229,0.134 c 0.012,0.108 0.022,0.274 0.025,0.493 0.006,0.219 0.018,0.392 0.032,0.519 0.232,2.123 0.828,3.711 1.789,4.763 0.957,1.054 2.217,1.493 3.779,1.322 C 1.729,4.88 2.82,4.352 3.604,3.449 4.385,2.546 5.113,0.826 5.793,-1.709 l 3.902,-14.42 c 1.953,2.394 3.428,4.642 4.43,6.746 1.002,2.104 1.621,4.236 1.857,6.395 l 0.147,1.334 c 0.195,1.796 0.598,3.032 1.205,3.711 0.604,0.675 1.537,0.947 2.785,0.811 C 20.902,2.782 21.5,2.508 21.92,2.051 22.336,1.591 22.508,1.008 22.432,0.3 22.295,-0.952 20.41,-4.111 16.779,-9.177 13.148,-14.244 10.152,-18.733 7.801,-22.644 l -1.446,0.158 z" />
      </g>
      <g
         transform="translate(113.002,578.9688)"
         id="g106">
        <path
           inkscape:connector-curvature="0"
           id="path108"
           style="fill:#f7a600;fill-opacity:1;fill-rule:nonzero;stroke:none"
           d="m 0,0 c 1.084,-0.159 2.138,-0.543 3.158,-1.149 1.022,-0.608 1.835,-1.326 2.443,-2.155 0.606,-0.83 0.717,-1.595 0.335,-2.298 -3.958,-6.832 -7.9,-13.597 -11.826,-20.299 -3.926,-6.703 -8.108,-13.263 -12.544,-19.678 -4.438,-6.416 -9.288,-12.641 -14.554,-18.673 -5.267,-6.032 -11.221,-11.792 -17.859,-17.283 -3.256,-2.681 -6.751,-4.788 -10.485,-6.32 -3.735,-1.533 -7.373,-2.505 -10.916,-2.921 -3.544,-0.414 -6.847,-0.319 -9.911,0.287 -3.065,0.607 -5.554,1.724 -7.469,3.351 -1.915,1.628 -3.079,3.72 -3.495,6.273 -0.414,2.553 0.208,5.553 1.867,9.001 0.574,0.574 1.58,1.293 3.017,2.154 1.435,0.861 2.92,1.645 4.453,2.346 1.531,0.703 2.872,1.182 4.02,1.436 1.15,0.256 1.725,0.065 1.725,-0.574 -2.361,-3.766 -3.862,-6.974 -4.501,-9.623 -0.637,-2.648 -0.605,-4.755 0.096,-6.32 0.703,-1.564 1.931,-2.585 3.686,-3.065 1.757,-0.478 3.879,-0.414 6.368,0.193 2.49,0.607 5.236,1.755 8.236,3.447 3,1.691 6.031,3.941 9.095,6.75 3.639,3.32 7.023,6.783 10.151,10.389 3.127,3.608 6.063,7.326 8.808,11.156 2.745,3.83 5.364,7.709 7.854,11.635 2.489,3.925 4.914,7.899 7.276,11.92 -4.787,-3.766 -9.687,-7.246 -14.698,-10.436 -5.012,-3.191 -9.91,-5.809 -14.698,-7.852 -3.256,-1.086 -6.05,-1.324 -8.379,-0.718 -2.331,0.607 -4.23,1.644 -5.697,3.111 -1.468,1.47 -2.552,3.113 -3.256,4.932 -0.702,1.819 -1.085,3.399 -1.15,4.74 -0.127,2.489 0.225,5.314 1.054,8.474 0.831,3.16 2.091,6.479 3.782,9.959 1.691,3.479 3.798,7.069 6.321,10.772 2.521,3.701 5.377,7.373 8.569,11.012 2.49,2.744 5.171,5.601 8.044,8.57 2.872,2.969 5.89,5.841 9.05,8.617 3.159,2.777 6.477,5.33 9.958,7.661 3.478,2.329 7.1,4.198 10.867,5.603 1.341,0.51 2.953,0.414 4.836,-0.288 1.882,-0.703 3.653,-1.741 5.315,-3.113 1.658,-1.373 3,-2.905 4.021,-4.595 C 3.988,24.736 4.309,23.125 3.925,21.593 3.222,18.399 2.12,15.353 0.622,12.448 -0.88,9.543 -2.634,6.847 -4.645,4.356 c -2.011,-2.489 -4.213,-4.771 -6.607,-6.845 -2.394,-2.076 -4.869,-3.879 -7.422,-5.41 -1.086,-0.575 -2.44,-0.991 -4.069,-1.246 -1.627,-0.255 -3.193,-0.382 -4.692,-0.382 -1.501,0 -2.777,0.127 -3.831,0.382 -1.052,0.255 -1.516,0.671 -1.387,1.246 1.915,1.148 4.085,2.585 6.511,4.308 2.425,1.724 4.85,3.591 7.277,5.602 2.426,2.011 4.755,4.133 6.991,6.368 2.233,2.233 4.148,4.388 5.745,6.464 1.595,2.072 2.744,4.005 3.446,5.793 0.703,1.785 0.767,3.318 0.192,4.595 -0.447,1.084 -0.989,1.755 -1.627,2.012 -0.64,0.254 -1.293,0.254 -1.964,0 -0.67,-0.257 -1.372,-0.656 -2.106,-1.197 -0.735,-0.543 -1.421,-1.039 -2.059,-1.484 -2.489,-1.597 -5.234,-3.657 -8.234,-6.177 -3.002,-2.523 -6.067,-5.347 -9.194,-8.474 -3.128,-3.129 -6.223,-6.449 -9.287,-9.959 -3.064,-3.512 -5.954,-7.038 -8.667,-10.581 -2.714,-3.543 -5.171,-7.022 -7.373,-10.436 -2.202,-3.416 -3.959,-6.56 -5.267,-9.433 -1.309,-2.872 -2.105,-5.396 -2.393,-7.565 -0.287,-2.17 0.11,-3.798 1.197,-4.883 1.403,-1.15 3.607,-1.116 6.608,0.095 2.999,1.213 6.415,3.144 10.245,5.793 3.831,2.649 7.835,5.746 12.017,9.289 4.18,3.543 8.139,7.038 11.874,10.485 3.734,3.447 7.005,6.607 9.815,9.48 2.808,2.872 4.755,4.946 5.842,6.225 l 0.573,0.766 C -1.916,-0.112 -1.087,0.159 0,0" />
      </g>
      <g
         transform="translate(113.002,578.9688)"
         id="g110">
        <path
           inkscape:connector-curvature="0"
           id="path112"
           style="fill:#003c70;fill-opacity:1;fill-rule:nonzero;stroke:none"
           d="M 0,0 C -0.769,0.119 -1.629,0.003 -2.215,-0.543 -2.51,-0.804 -2.711,-1.15 -2.955,-1.458 -3.194,-1.774 -3.462,-2.063 -3.72,-2.361 -4.766,-3.54 -5.847,-4.688 -6.934,-5.83 c -2.172,-2.283 -4.386,-4.529 -6.649,-6.726 -4.538,-4.377 -9.135,-8.697 -13.863,-12.875 -4.713,-4.188 -9.553,-8.27 -14.699,-11.958 -2.579,-1.845 -5.249,-3.583 -8.103,-5.042 -1.429,-0.711 -2.887,-1.401 -4.522,-1.828 -0.815,-0.199 -1.673,-0.339 -2.578,-0.278 -0.896,0.049 -1.862,0.357 -2.626,0.969 l -0.022,0.017 -0.037,0.036 c -0.645,0.623 -1.092,1.447 -1.319,2.279 -0.233,0.838 -0.278,1.675 -0.239,2.489 0.103,1.611 0.46,3.111 0.908,4.59 0.924,2.938 2.209,5.699 3.662,8.347 2.915,5.303 6.404,10.189 9.995,14.994 7.267,9.52 15.237,18.525 24.092,26.632 2.224,2.02 4.507,3.97 6.884,5.826 1.189,0.926 2.401,1.826 3.648,2.685 l 1.847,1.241 1.796,1.299 c 0.651,0.474 1.344,0.907 2.145,1.239 0.821,0.375 2.014,0.472 2.95,0.027 0.543,-0.242 0.938,-0.622 1.237,-0.995 0.297,-0.372 0.511,-0.774 0.703,-1.171 0.138,-0.303 0.347,-0.769 0.451,-1.207 0.112,-0.444 0.166,-0.897 0.169,-1.341 0.008,-0.891 -0.167,-1.726 -0.422,-2.518 -0.249,-0.758 -0.583,-1.505 -0.931,-2.194 -0.708,-1.4 -1.553,-2.69 -2.469,-3.929 -3.676,-4.862 -8.033,-9.045 -12.612,-12.959 -4.606,-3.868 -9.446,-7.43 -14.601,-10.576 l 0.461,0.639 c 0.033,0.008 -0.047,0.253 -0.056,0.222 -0.002,-0.008 0.134,-0.096 0.296,-0.155 0.16,-0.059 0.361,-0.115 0.601,-0.165 0.225,-0.052 0.457,-0.091 0.69,-0.128 0.949,-0.144 1.889,-0.188 2.896,-0.181 1.944,0.022 3.993,0.23 5.837,0.67 0.934,0.244 1.796,0.538 2.558,1.018 0.857,0.516 1.689,1.074 2.514,1.642 1.649,1.161 3.206,2.375 4.726,3.719 3.003,2.648 5.733,5.642 8.033,8.908 2.289,3.283 4.226,6.83 5.479,10.594 0.323,0.95 0.592,1.887 0.833,2.854 0.109,0.485 0.259,1.037 0.312,1.403 0.056,0.408 0.051,0.824 -0.01,1.242 -0.129,0.84 -0.473,1.665 -0.968,2.462 -0.5,0.818 -1.08,1.59 -1.721,2.311 -1.28,1.431 -2.82,2.698 -4.48,3.673 -1.662,0.946 -3.534,1.769 -5.245,1.774 -0.418,0.003 -0.861,-0.063 -1.203,-0.167 -0.413,-0.134 -0.922,-0.34 -1.373,-0.518 -0.93,-0.373 -1.848,-0.774 -2.754,-1.202 -1.81,-0.856 -3.572,-1.82 -5.274,-2.881 -3.391,-2.148 -6.665,-4.581 -9.751,-7.168 -3.094,-2.619 -6.076,-5.391 -8.944,-8.255 -2.859,-2.883 -5.666,-5.859 -8.421,-8.851 -5.454,-5.974 -10.333,-12.53 -14.259,-19.583 -1.944,-3.53 -3.639,-7.208 -4.85,-11.022 -0.6,-1.894 -1.094,-3.855 -1.383,-5.801 -0.145,-0.977 -0.243,-1.957 -0.27,-2.932 -0.012,-0.505 -0.015,-0.94 0.011,-1.465 0.026,-0.458 0.067,-0.913 0.161,-1.379 0.168,-0.932 0.452,-1.851 0.79,-2.777 0.334,-0.917 0.736,-1.755 1.247,-2.561 0.252,-0.402 0.529,-0.788 0.826,-1.161 0.296,-0.374 0.58,-0.698 0.952,-1.083 0.633,-0.665 1.376,-1.24 2.182,-1.709 1.624,-0.916 3.501,-1.543 5.343,-1.578 1.879,-0.047 3.806,0.374 5.668,0.989 l -0.076,-0.029 c 5.259,2.249 10.293,5.029 15.118,8.14 4.841,3.108 9.529,6.457 14.053,10.015 l 4.189,3.294 -2.708,-4.587 c -4.481,-7.588 -9.125,-15.097 -14.242,-22.313 -5.099,-7.218 -10.747,-14.101 -17.12,-20.273 -3.167,-3.066 -6.508,-6.103 -10.322,-8.504 -1.916,-1.214 -3.88,-2.262 -5.963,-3.168 -2.078,-0.89 -4.265,-1.613 -6.581,-1.915 -1.157,-0.147 -2.354,-0.184 -3.561,-0.009 -1.202,0.179 -2.437,0.571 -3.499,1.368 -1.06,0.781 -1.827,1.948 -2.215,3.151 -0.393,1.23 -0.434,2.474 -0.341,3.653 0.199,2.359 0.922,4.58 1.847,6.65 0.928,2.07 2.034,4.025 3.217,5.915 l -0.152,-0.531 c -0.003,0.023 -0.002,-0.101 0.101,-0.217 0.107,-0.113 0.181,-0.114 0.145,-0.108 -0.059,0.018 -0.339,0.005 -0.549,-0.036 -0.561,-0.113 -1.131,-0.276 -1.697,-0.469 -1.129,-0.381 -2.247,-0.893 -3.366,-1.434 -1.117,-0.554 -2.163,-1.116 -3.266,-1.771 -1.021,-0.616 -2.121,-1.308 -2.876,-2.034 l 0.195,0.273 c -1.405,-2.935 -2.384,-6.18 -1.626,-9.176 0.355,-1.508 1.064,-2.896 2.097,-4.03 1.052,-1.143 2.354,-2.029 3.803,-2.702 2.897,-1.326 6.238,-1.794 9.516,-1.821 3.298,-0.008 6.601,0.463 9.792,1.355 3.194,0.898 6.313,2.126 9.199,3.738 1.446,0.806 2.841,1.706 4.179,2.687 1.324,0.969 2.606,2.069 3.892,3.17 5.12,4.399 10.023,9.059 14.602,14.012 4.569,4.989 8.864,10.233 12.955,15.628 4.074,5.422 7.908,11.017 11.575,16.732 1.833,2.854 3.603,5.753 5.35,8.665 1.754,2.909 3.509,5.818 5.223,8.752 L 5.361,-6.5 c 0.207,0.368 0.449,0.729 0.626,1.103 0.166,0.382 0.172,0.822 0.04,1.219 C 5.752,-3.38 5.137,-2.744 4.529,-2.169 3.258,-1.057 1.682,-0.258 0,0 M 0,0 C 1.686,-0.243 3.27,-1.027 4.56,-2.135 5.176,-2.71 5.8,-3.337 6.092,-4.157 6.232,-4.564 6.231,-5.026 6.062,-5.428 5.877,-5.822 5.646,-6.172 5.44,-6.546 l -5.08,-8.835 c -3.423,-5.869 -6.654,-11.845 -10.19,-17.66 -3.535,-5.806 -7.178,-11.567 -11.106,-17.13 -3.929,-5.571 -8.161,-10.927 -12.632,-16.08 -4.498,-5.161 -9.398,-9.954 -14.617,-14.37 -2.555,-2.22 -5.376,-4.389 -8.415,-6.06 -3.048,-1.701 -6.296,-2.979 -9.638,-3.919 -3.352,-0.936 -6.837,-1.436 -10.334,-1.427 -3.489,0.036 -7.043,0.504 -10.35,2.006 -1.629,0.751 -3.194,1.811 -4.442,3.173 -1.261,1.378 -2.142,3.113 -2.562,4.91 -0.052,0.225 -0.103,0.45 -0.141,0.676 l -0.06,0.36 -0.043,0.315 c -0.053,0.473 -0.082,0.96 -0.074,1.414 0.011,0.927 0.121,1.84 0.308,2.724 0.378,1.771 1.022,3.435 1.779,5.018 l 0.079,0.164 0.115,0.11 c 1.077,1.019 2.153,1.655 3.285,2.348 1.068,0.637 2.246,1.274 3.392,1.84 1.153,0.558 2.336,1.101 3.6,1.531 0.629,0.213 1.276,0.401 1.953,0.537 0.409,0.064 0.767,0.13 1.333,0.035 0.271,-0.055 0.655,-0.182 0.968,-0.54 0.313,-0.356 0.396,-0.804 0.391,-1.096 l -0.005,-0.291 -0.147,-0.24 c -2.251,-3.664 -4.403,-7.559 -4.767,-11.665 -0.082,-1.007 -0.03,-2.005 0.25,-2.875 0.294,-0.883 0.8,-1.635 1.513,-2.168 1.434,-1.072 3.593,-1.238 5.605,-0.974 4.118,0.571 8.096,2.537 11.725,4.785 3.645,2.297 6.858,5.207 10.004,8.252 6.269,6.074 11.834,12.853 16.883,19.998 5.062,7.139 9.682,14.608 14.146,22.167 l 1.48,-1.293 c -4.572,-3.595 -9.311,-6.981 -14.208,-10.125 -4.897,-3.158 -10.03,-5.994 -15.414,-8.297 l -0.039,-0.016 -0.037,-0.012 c -2.009,-0.661 -4.134,-1.142 -6.351,-1.091 -1.09,0.021 -2.263,0.22 -3.273,0.546 -1.053,0.322 -2.065,0.742 -3.026,1.303 -0.958,0.558 -1.849,1.244 -2.624,2.06 -0.34,0.347 -0.734,0.789 -1.07,1.216 -0.34,0.427 -0.66,0.872 -0.95,1.336 -0.586,0.918 -1.069,1.933 -1.433,2.937 -0.362,0.991 -0.688,2.03 -0.881,3.11 -0.108,0.537 -0.163,1.102 -0.193,1.662 -0.025,0.496 -0.026,1.084 -0.011,1.6 0.03,1.067 0.135,2.125 0.291,3.169 0.314,2.095 0.823,4.11 1.455,6.11 1.264,3.98 3.01,7.759 5.005,11.384 4.027,7.231 8.978,13.877 14.535,19.968 2.781,3.019 5.583,5.99 8.478,8.91 2.914,2.911 5.923,5.708 9.068,8.369 3.177,2.662 6.475,5.115 9.987,7.342 1.766,1.099 3.595,2.101 5.478,2.992 0.942,0.444 1.897,0.861 2.864,1.249 0.498,0.196 0.935,0.377 1.493,0.563 0.636,0.193 1.216,0.263 1.819,0.266 1.195,0.001 2.308,-0.282 3.34,-0.66 l 0.736,-0.292 0.757,-0.339 c 0.488,-0.236 0.963,-0.488 1.43,-0.757 C -1.266,32.599 0.39,31.239 1.835,29.628 2.552,28.824 3.203,27.955 3.77,27.03 4.35,26.094 4.831,25.005 5.01,23.819 5.097,23.227 5.104,22.611 5.021,22.007 4.92,21.363 4.787,20.93 4.674,20.419 4.423,19.402 4.127,18.375 3.793,17.39 1.052,9.405 -4.074,2.536 -10.295,-2.978 c -1.54,-1.364 -3.208,-2.668 -4.902,-3.858 -0.858,-0.59 -1.723,-1.17 -2.616,-1.708 -0.971,-0.609 -2.071,-0.982 -3.109,-1.25 -0.529,-0.137 -1.058,-0.236 -1.588,-0.325 -0.519,-0.082 -1.031,-0.154 -1.565,-0.213 -1.047,-0.119 -2.103,-0.187 -3.162,-0.193 -1.035,-0.007 -2.143,0.039 -3.215,0.205 -0.272,0.043 -0.543,0.089 -0.817,0.152 -0.258,0.054 -0.553,0.128 -0.874,0.246 -0.31,0.126 -0.647,0.263 -1.011,0.617 -0.177,0.176 -0.357,0.43 -0.449,0.74 -0.094,0.307 -0.085,0.631 -0.026,0.884 l 0.095,0.415 0.366,0.224 c 5.026,3.068 9.822,6.592 14.345,10.394 4.476,3.823 8.774,7.961 12.296,12.623 0.856,1.158 1.648,2.372 2.286,3.634 0.637,1.271 1.154,2.575 1.137,3.789 -0.002,0.302 -0.039,0.595 -0.109,0.873 -0.071,0.289 -0.169,0.506 -0.338,0.882 -0.245,0.542 -0.635,1.048 -0.92,1.15 -0.431,0.182 -0.853,0.177 -1.389,-0.049 -0.578,-0.239 -1.162,-0.594 -1.714,-0.999 l -1.828,-1.322 -1.866,-1.253 c -1.208,-0.832 -2.39,-1.709 -3.553,-2.616 -2.324,-1.814 -4.577,-3.739 -6.768,-5.728 -8.741,-8.002 -16.646,-16.931 -23.845,-26.361 -3.569,-4.725 -6.934,-9.638 -9.828,-14.756 -1.415,-2.573 -2.763,-5.196 -3.681,-7.934 -0.453,-1.36 -0.817,-2.777 -0.934,-4.142 -0.111,-1.349 0.136,-2.671 0.98,-3.521 l -0.058,0.054 c 0.918,-0.798 2.414,-0.816 3.837,-0.486 1.43,0.331 2.859,0.96 4.268,1.61 2.805,1.326 5.488,2.953 8.088,4.695 5.221,3.496 10.158,7.406 14.961,11.484 4.81,4.068 9.561,8.214 14.103,12.584 2.281,2.175 4.512,4.401 6.705,6.665 1.097,1.131 2.186,2.269 3.242,3.439 0.261,0.295 0.532,0.583 0.772,0.894 0.246,0.305 0.45,0.65 0.75,0.912 C -1.632,0.019 -0.768,0.126 0,0" />
      </g>
      <g
         transform="translate(174.2891,531.4014)"
         id="g160">
        <path
           inkscape:connector-curvature="0"
           id="path162"
           style="fill:#003c70;fill-opacity:1;fill-rule:nonzero;stroke:none"
           d="m 0,0 c -1.197,-3.115 -3.105,-5.961 -5.482,-8.34 -2.397,-2.363 -5.297,-4.228 -8.461,-5.433 -6.332,-2.44 -13.686,-2.03 -19.766,1.029 -6.066,3.076 -10.783,8.73 -12.586,15.277 -0.91,3.264 -1.125,6.697 -0.662,10.033 0.492,3.329 1.65,6.553 3.449,9.366 -3.242,-5.832 -3.986,-12.909 -2.049,-19.184 1.893,-6.285 6.43,-11.705 12.299,-14.602 5.813,-3.007 12.873,-3.408 19.051,-1.201 C -8,-10.893 -2.775,-6.063 0,0" />
      </g>
    </g>
  </g>
</svg>
