<?xml version="1.0" encoding="UTF-8" standalone="no"?>
<!-- Created with Inkscape (http://www.inkscape.org/) -->

<svg
   xmlns:dc="http://purl.org/dc/elements/1.1/"
   xmlns:cc="http://creativecommons.org/ns#"
   xmlns:rdf="http://www.w3.org/1999/02/22-rdf-syntax-ns#"
   xmlns:svg="http://www.w3.org/2000/svg"
   xmlns="http://www.w3.org/2000/svg"
   xmlns:sodipodi="http://sodipodi.sourceforge.net/DTD/sodipodi-0.dtd"
   xmlns:inkscape="http://www.inkscape.org/namespaces/inkscape"
   width="86.874817mm"
   height="44.370735mm"
   viewBox="0 0 86.874817 44.370735"
   version="1.1"
   id="svg5241"
   inkscape:version="0.92+devel unknown"
   sodipodi:docname="genie_text.svg">
  <defs
     id="defs5235" />
  <sodipodi:namedview
     id="base"
     pagecolor="#ffffff"
     bordercolor="#666666"
     borderopacity="1.0"
     inkscape:pageopacity="0.0"
     inkscape:pageshadow="2"
     inkscape:zoom="0.35"
     inkscape:cx="-405.82713"
     inkscape:cy="-19.006913"
     inkscape:document-units="mm"
     inkscape:current-layer="layer1"
     inkscape:document-rotation="0"
     showgrid="false"
     inkscape:window-width="1920"
     inkscape:window-height="1043"
     inkscape:window-x="0"
     inkscape:window-y="0"
     inkscape:window-maximized="1" />
  <metadata
     id="metadata5238">
    <rdf:RDF>
      <cc:Work
         rdf:about="">
        <dc:format>image/svg+xml</dc:format>
        <dc:type
           rdf:resource="http://purl.org/dc/dcmitype/StillImage" />
        <dc:title></dc:title>
      </cc:Work>
    </rdf:RDF>
  </metadata>
  <g
     inkscape:label="Livello 1"
     inkscape:groupmode="layer"
     id="layer1"
     transform="translate(-38.205452,-99.433684)">
    <g
       id="g388"
       transform="matrix(0.35277777,0,0,-0.35277777,107.46599,110.21436)">
      <path
         d="m 0,0 c 0.522,-0.319 1.102,-0.537 1.74,-0.652 0.638,-0.118 1.189,-0.031 1.654,0.26 1.391,1.161 2.566,2.145 3.523,2.958 0.957,0.812 1.884,1.61 2.783,2.393 0.9,0.783 1.871,1.623 2.915,2.522 1.044,0.899 2.349,1.958 3.915,3.176 0.174,0.348 -0.117,0.884 -0.87,1.61 -0.755,0.724 -1.682,1.421 -2.784,2.087 -1.103,0.667 -2.219,1.189 -3.35,1.567 C 8.396,16.298 7.539,16.313 6.96,15.964 5.857,14.688 4.872,13.383 4.002,12.05 3.132,10.714 2.362,9.439 1.696,8.222 1.029,7.003 0.449,5.886 -0.043,4.872 -0.537,3.856 -0.929,3.059 -1.218,2.479 -1.509,2.015 -1.509,1.565 -1.218,1.131 -0.929,0.696 -0.521,0.317 0,0"
         style="fill:#003c70;fill-opacity:1;fill-rule:nonzero;stroke:none"
         id="path390"
         inkscape:connector-curvature="0" />
    </g>
    <g
       id="g392"
       transform="matrix(0.35277777,0,0,-0.35277777,115.87547,113.52888)">
      <path
         d="M 0,0 C 1.566,1.188 2.754,1.928 3.567,2.218 3.915,2.334 3.987,2.174 3.785,1.739 3.581,1.305 3.232,0.695 2.741,-0.088 2.247,-0.871 1.623,-1.727 0.87,-2.654 0.116,-3.582 -0.624,-4.496 -1.349,-5.395 c -0.725,-0.9 -1.422,-1.71 -2.088,-2.435 -0.667,-0.727 -1.173,-1.233 -1.522,-1.524 -0.754,-0.58 -1.392,-1.086 -1.914,-1.521 -0.522,-0.436 -1.087,-0.842 -1.696,-1.219 -0.609,-0.377 -1.335,-0.769 -2.175,-1.174 -0.842,-0.406 -1.929,-0.9 -3.263,-1.479 0.927,1.682 2.219,3.466 3.872,5.351 1.653,1.884 3.363,3.624 5.133,5.22 C -3.233,-2.582 -1.565,-1.189 0,0 m -109.313,-9.396 c 1.653,1.884 3.363,3.624 5.133,5.22 1.769,1.594 3.437,2.987 5.002,4.176 1.567,1.188 2.754,1.928 3.568,2.218 0.347,0.116 0.42,-0.044 0.217,-0.479 -0.204,-0.434 -0.552,-1.044 -1.044,-1.827 -0.494,-0.783 -1.118,-1.639 -1.871,-2.566 -0.754,-0.928 -1.494,-1.842 -2.218,-2.741 -0.726,-0.9 -1.422,-1.71 -2.088,-2.435 -0.667,-0.727 -1.174,-1.233 -1.523,-1.524 -0.754,-0.58 -1.391,-1.086 -1.914,-1.521 -0.521,-0.436 -1.087,-0.842 -1.696,-1.219 -0.608,-0.377 -1.335,-0.769 -2.175,-1.174 -0.842,-0.406 -1.929,-0.9 -3.263,-1.479 0.927,1.682 2.219,3.466 3.872,5.351 M 26.057,2.131 C 25.97,2.479 25.796,2.769 25.535,3.001 25.273,3.232 24.954,3.35 24.578,3.35 24.2,3.35 23.809,3.145 23.403,2.74 c -2.669,-2.784 -5.25,-5.685 -7.743,-8.7 -2.494,-3.017 -5.046,-5.872 -7.656,-8.569 -2.609,-2.698 -5.321,-5.133 -8.134,-7.309 -2.814,-2.175 -5.873,-3.784 -9.179,-4.828 -4.583,-1.509 -7.077,-0.813 -7.482,2.088 -0.232,0.638 -0.247,1.421 -0.043,2.349 0.202,0.927 0.507,2.058 0.913,3.393 2.552,0.695 5.147,1.725 7.787,3.088 2.638,1.363 5.089,2.959 7.352,4.785 2.261,1.827 4.189,3.814 5.785,5.96 1.595,2.146 2.623,4.351 3.088,6.612 C 8.207,2.188 7.844,2.914 7.004,3.784 6.162,4.654 5.09,5.407 3.785,6.046 2.479,6.684 1.088,7.133 -0.392,7.395 -1.87,7.655 -3.19,7.495 -4.35,6.916 -5.858,6.221 -7.438,5.189 -9.091,3.828 c -1.653,-1.364 -3.263,-2.901 -4.829,-4.611 -1.565,-1.712 -3.074,-3.524 -4.523,-5.438 -1.45,-1.914 -2.698,-3.785 -3.742,-5.611 -1.044,-1.828 -1.855,-3.554 -2.436,-5.177 -0.004,-0.011 -0.006,-0.02 -0.01,-0.03 -1.559,-1.563 -3.094,-3.032 -4.6,-4.406 -0.697,-0.581 -1.712,-1.379 -3.045,-2.393 -1.335,-1.016 -2.611,-1.871 -3.828,-2.566 -1.218,-0.698 -2.191,-1.06 -2.916,-1.088 -0.725,-0.03 -0.769,0.652 -0.129,2.044 2.261,5.51 4.943,10.571 8.046,15.181 3.103,4.612 6.626,9.179 10.572,13.703 0.23,0.348 -0.146,0.724 -1.132,1.13 -0.986,0.407 -2.131,0.769 -3.437,1.088 -1.304,0.319 -2.566,0.508 -3.784,0.567 -1.218,0.056 -1.943,-0.088 -2.175,-0.436 -1.74,-2.205 -3.567,-4.611 -5.481,-7.221 -1.914,-2.61 -3.728,-5.293 -5.438,-8.047 -0.564,-0.91 -1.095,-1.817 -1.613,-2.722 -1.965,-2.346 -3.946,-4.637 -5.954,-6.849 -2.292,-2.522 -4.452,-4.741 -6.481,-6.655 -1.625,-1.625 -2.785,-2.451 -3.481,-2.479 -0.696,-0.031 -1.074,0.348 -1.131,1.13 -0.058,0.784 0.101,1.785 0.479,3.001 0.376,1.219 0.826,2.233 1.348,3.045 1.333,2.031 2.581,3.886 3.742,5.569 1.159,1.681 2.304,3.306 3.436,4.873 1.131,1.565 2.29,3.116 3.48,4.654 1.188,1.535 2.507,3.232 3.959,5.089 0.056,0.927 -0.364,1.827 -1.262,2.697 -0.9,0.87 -1.987,1.609 -3.263,2.218 -1.276,0.609 -2.596,1.045 -3.959,1.306 -1.363,0.26 -2.479,0.274 -3.348,0.044 -0.755,-0.059 -1.799,-0.523 -3.133,-1.393 -1.335,-0.87 -2.799,-1.957 -4.394,-3.262 -1.595,-1.305 -3.233,-2.756 -4.915,-4.35 -1.682,-1.597 -3.262,-3.176 -4.741,-4.742 -1.479,-1.566 -2.784,-3.017 -3.915,-4.35 -1.131,-1.335 -1.9,-2.379 -2.306,-3.132 0,0.463 0.362,1.406 1.088,2.828 0.724,1.42 1.623,3.045 2.696,4.871 1.074,1.827 2.248,3.711 3.524,5.655 1.275,1.943 2.465,3.699 3.567,5.264 0.232,0.405 0,0.812 -0.696,1.218 -0.695,0.405 -1.537,0.709 -2.522,0.914 -0.988,0.202 -1.958,0.305 -2.915,0.305 -0.958,0 -1.582,-0.175 -1.871,-0.523 -1.508,-1.972 -2.988,-3.958 -4.437,-5.96 -1.45,-2.001 -2.858,-4.249 -4.219,-6.742 -0.006,-0.012 -0.012,-0.023 -0.017,-0.033 -1.947,-2.274 -3.926,-4.453 -5.942,-6.535 -2.609,-2.698 -5.321,-5.133 -8.134,-7.309 -2.814,-2.175 -5.873,-3.784 -9.178,-4.828 -4.583,-1.509 -7.077,-0.813 -7.483,2.088 -0.232,0.638 -0.247,1.421 -0.043,2.349 0.202,0.927 0.507,2.058 0.913,3.393 2.552,0.695 5.147,1.725 7.787,3.088 2.638,1.363 5.089,2.959 7.352,4.785 2.262,1.827 4.189,3.814 5.785,5.96 1.595,2.146 2.623,4.351 3.088,6.612 0.116,0.579 -0.247,1.305 -1.087,2.175 -0.842,0.87 -1.914,1.623 -3.219,2.262 -1.305,0.638 -2.697,1.087 -4.176,1.349 -1.479,0.26 -2.799,0.1 -3.958,-0.479 -1.509,-0.695 -3.089,-1.727 -4.742,-3.088 -1.653,-1.364 -3.262,-2.901 -4.829,-4.611 -1.565,-1.712 -3.074,-3.524 -4.523,-5.438 -1.449,-1.914 -2.697,-3.785 -3.741,-5.611 -1.044,-1.828 -1.856,-3.554 -2.437,-5.177 -0.579,-1.624 -0.811,-2.958 -0.695,-4.003 0.174,-1.39 0.754,-2.783 1.739,-4.176 0.987,-1.391 2.205,-2.609 3.654,-3.653 1.451,-1.044 3.059,-1.843 4.83,-2.392 1.768,-0.551 3.523,-0.71 5.262,-0.479 1.856,0.232 3.755,0.913 5.699,2.044 1.943,1.131 3.9,2.553 5.872,4.264 1.971,1.71 3.972,3.654 6.003,5.828 0.659,0.707 1.318,1.436 1.977,2.16 -1.076,-2.91 -2.086,-6.238 -3.021,-10.033 -0.058,-0.291 0.216,-0.739 0.826,-1.348 0.609,-0.609 1.32,-1.176 2.132,-1.697 0.812,-0.522 1.595,-0.928 2.348,-1.218 0.753,-0.29 1.218,-0.29 1.392,0 1.798,2.784 3.828,5.712 6.091,8.787 2.261,3.073 4.61,6.09 7.046,9.048 1.508,1.682 3.088,3.35 4.742,5.002 1.653,1.653 3.204,3.117 4.654,4.395 1.449,1.274 2.726,2.29 3.828,3.044 1.102,0.752 1.871,1.116 2.306,1.087 0.434,-0.03 0.478,-0.536 0.131,-1.522 -0.349,-0.986 -1.248,-2.582 -2.698,-4.785 -1.217,-1.683 -2.364,-3.205 -3.436,-4.568 -1.074,-1.363 -2.031,-2.696 -2.871,-4.002 -0.842,-1.304 -1.537,-2.61 -2.088,-3.915 -0.552,-1.304 -0.944,-2.712 -1.175,-4.218 -0.116,-0.581 -0.145,-1.306 -0.087,-2.176 0.058,-0.869 0.218,-1.74 0.479,-2.61 0.26,-0.871 0.637,-1.683 1.13,-2.436 0.493,-0.755 1.145,-1.306 1.958,-1.653 0.812,-0.289 1.753,-0.435 2.828,-0.435 1.072,0 2.116,0.073 3.131,0.218 1.015,0.144 1.9,0.334 2.654,0.564 0.754,0.234 1.219,0.436 1.392,0.61 2.03,1.971 4.307,4.451 6.829,7.439 0.116,0.136 0.232,0.281 0.347,0.418 -0.187,-0.685 -0.35,-1.363 -0.477,-2.028 -0.29,-1.683 0.551,-3.132 2.522,-4.35 1.973,-1.218 5.22,-1.914 9.744,-2.089 2.552,0.698 5.22,2.307 8.004,4.829 1.339,1.213 2.692,2.529 4.057,3.937 0.289,-0.689 0.676,-1.377 1.163,-2.067 0.987,-1.391 2.205,-2.609 3.654,-3.653 1.45,-1.044 3.059,-1.843 4.829,-2.392 1.769,-0.551 3.524,-0.71 5.263,-0.479 1.855,0.232 3.755,0.913 5.699,2.044 1.943,1.131 3.9,2.553 5.872,4.264 1.971,1.71 3.972,3.654 6.003,5.828 2.029,2.176 4.06,4.437 6.09,6.787 2.03,2.349 4.046,4.711 6.047,7.09 2.001,2.378 3.987,4.639 5.959,6.786 0.231,0.349 0.305,0.696 0.218,1.044"
         style="fill:#003c70;fill-opacity:1;fill-rule:nonzero;stroke:none"
         id="path394"
         inkscape:connector-curvature="0" />
    </g>
    <g
       id="g396"
       transform="matrix(0.35277777,0,0,-0.35277777,71.100946,111.69162)">
      <path
         d="m 0,0 c 1.084,-0.159 2.138,-0.543 3.158,-1.149 1.022,-0.608 1.835,-1.326 2.443,-2.155 0.606,-0.83 0.717,-1.595 0.335,-2.298 -3.958,-6.832 -7.9,-13.597 -11.826,-20.299 -3.926,-6.703 -8.108,-13.263 -12.544,-19.678 -4.438,-6.416 -9.288,-12.641 -14.554,-18.673 -5.267,-6.032 -11.221,-11.792 -17.859,-17.283 -3.256,-2.681 -6.751,-4.788 -10.485,-6.32 -3.735,-1.533 -7.373,-2.505 -10.916,-2.921 -3.544,-0.414 -6.847,-0.319 -9.911,0.287 -3.065,0.607 -5.554,1.724 -7.469,3.351 -1.915,1.628 -3.079,3.72 -3.495,6.273 -0.414,2.553 0.208,5.553 1.867,9.001 0.574,0.574 1.58,1.293 3.017,2.154 1.435,0.861 2.92,1.645 4.453,2.346 1.531,0.703 2.872,1.182 4.02,1.436 1.15,0.256 1.725,0.065 1.725,-0.574 -2.361,-3.766 -3.862,-6.974 -4.501,-9.623 -0.637,-2.648 -0.605,-4.755 0.096,-6.32 0.703,-1.564 1.931,-2.585 3.686,-3.065 1.757,-0.478 3.879,-0.414 6.368,0.193 2.49,0.607 5.236,1.755 8.236,3.447 3,1.691 6.031,3.941 9.095,6.75 3.639,3.32 7.023,6.783 10.151,10.389 3.127,3.608 6.063,7.326 8.808,11.156 2.745,3.83 5.364,7.709 7.854,11.635 2.489,3.925 4.914,7.899 7.276,11.92 -4.787,-3.766 -9.687,-7.246 -14.698,-10.436 -5.012,-3.191 -9.91,-5.809 -14.698,-7.852 -3.256,-1.086 -6.05,-1.324 -8.379,-0.718 -2.331,0.607 -4.23,1.644 -5.697,3.111 -1.468,1.47 -2.552,3.113 -3.256,4.932 -0.702,1.819 -1.085,3.399 -1.15,4.74 -0.127,2.489 0.225,5.314 1.054,8.474 0.831,3.16 2.091,6.479 3.782,9.959 1.691,3.479 3.798,7.069 6.321,10.772 2.521,3.701 5.377,7.373 8.569,11.012 2.49,2.744 5.171,5.601 8.044,8.57 2.872,2.969 5.89,5.841 9.05,8.617 3.159,2.777 6.477,5.33 9.958,7.661 3.478,2.329 7.1,4.198 10.867,5.603 1.341,0.51 2.953,0.414 4.836,-0.288 1.882,-0.703 3.653,-1.741 5.315,-3.113 1.658,-1.373 3,-2.905 4.021,-4.595 C 3.988,24.736 4.309,23.125 3.925,21.593 3.222,18.399 2.12,15.353 0.622,12.448 -0.88,9.543 -2.634,6.847 -4.645,4.356 c -2.011,-2.489 -4.213,-4.771 -6.607,-6.845 -2.394,-2.076 -4.869,-3.879 -7.422,-5.41 -1.086,-0.575 -2.44,-0.991 -4.069,-1.246 -1.627,-0.255 -3.193,-0.382 -4.692,-0.382 -1.501,0 -2.777,0.127 -3.831,0.382 -1.052,0.255 -1.516,0.671 -1.387,1.246 1.915,1.148 4.085,2.585 6.511,4.308 2.425,1.724 4.85,3.591 7.277,5.602 2.426,2.011 4.755,4.133 6.991,6.368 2.233,2.233 4.148,4.388 5.745,6.464 1.595,2.072 2.744,4.005 3.446,5.793 0.703,1.785 0.767,3.318 0.192,4.595 -0.447,1.084 -0.989,1.755 -1.627,2.012 -0.64,0.254 -1.293,0.254 -1.964,0 -0.67,-0.257 -1.372,-0.656 -2.106,-1.197 -0.735,-0.543 -1.421,-1.039 -2.059,-1.484 -2.489,-1.597 -5.234,-3.657 -8.234,-6.177 -3.002,-2.523 -6.067,-5.347 -9.194,-8.474 -3.128,-3.129 -6.223,-6.449 -9.287,-9.959 -3.064,-3.512 -5.954,-7.038 -8.667,-10.581 -2.714,-3.543 -5.171,-7.022 -7.373,-10.436 -2.202,-3.416 -3.959,-6.56 -5.267,-9.433 -1.309,-2.872 -2.105,-5.396 -2.393,-7.565 -0.287,-2.17 0.11,-3.798 1.197,-4.883 1.403,-1.15 3.607,-1.116 6.608,0.095 2.999,1.213 6.415,3.144 10.245,5.793 3.831,2.649 7.835,5.746 12.017,9.289 4.18,3.543 8.139,7.038 11.874,10.485 3.734,3.447 7.005,6.607 9.815,9.48 2.808,2.872 4.755,4.946 5.842,6.225 l 0.573,0.766 C -1.916,-0.112 -1.087,0.159 0,0"
         style="fill:#f7a600;fill-opacity:1;fill-rule:nonzero;stroke:none"
         id="path398"
         inkscape:connector-curvature="0" />
    </g>
  </g>
</svg>
